<?xml version="1.0" encoding="utf-8"?>
<!-- Generator: Adobe Illustrator 27.5.0, SVG Export Plug-In . SVG Version: 6.00 Build 0)  -->
<svg version="1.1" xmlns="http://www.w3.org/2000/svg" xmlns:xlink="http://www.w3.org/1999/xlink" x="0px" y="0px"
	 viewBox="0 0 2500 2500" style="enable-background:new 0 0 2500 2500;" xml:space="preserve">
<g id="Background">
	<rect style="fill:#FFFFFF00;" width="2500" height="2500"/>
</g>
<g id="Illustration">
	<g id="Follow_us_1_">
		<circle style="fill:#2D2627;" cx="1250" cy="1250" r="915"/>
		<g>
			<g>
				<g>
					
						<rect x="502.77" y="1096.614" transform="matrix(-1 -1.224647e-16 1.224647e-16 -1 2207.6306 3104.3618)" style="fill:#d67959;" width="1202.09" height="911.134"/>
					
						<rect x="722.495" y="952.318" transform="matrix(-1.836970e-16 1 -1 -1.836970e-16 2619.4641 411.8335)" style="fill:#2D2627;" width="762.641" height="1126.662"/>
					
						<ellipse transform="matrix(0.9637 -0.2669 0.2669 0.9637 -479.9028 365.3243)" style="fill:#FFD092;" cx="1103.815" cy="1947.881" rx="22.628" ry="22.627"/>
				</g>
				<path style="fill:#d67959;" d="M502.77,2032.449c0,52.15,42.276,94.426,94.425,94.426h1260.012
					c52.15,0,94.425-42.277,94.425-94.426H502.77z"/>
				<path style="fill:#2D2627;" d="M819.182,2118.09c-41.827,0-75.856-34.029-75.856-75.857c0-0.552,0.447-1,1-1
					c0.553,0,1,0.448,1,1c0,40.725,33.132,73.857,73.856,73.857c0.553,0,1,0.448,1,1S819.734,2118.09,819.182,2118.09z"/>
				<path style="fill:#2D2627;" d="M1259.809,2054.767c0,22.16,17.964,40.124,40.124,40.124h141.256
					c22.16,0,40.124-17.964,40.124-40.124H1259.809z"/>
			</g>
			<g>
				<polygon style="fill:#d67959;" points="1325.508,1856.582 1255.114,1790.437 818.471,1790.437 818.471,1609.423 
					1325.508,1609.423 				"/>
				<path style="fill:#FFFFFF;" d="M954.782,1693.093c0-18.705-21.06-33.868-47.04-33.868c-25.979,0-47.039,15.162-47.039,33.868
					c0,18.705,21.06,33.868,47.039,33.868c5.511,0,10.795-0.687,15.708-1.942l18.817,19.445l1.753-29.811
					C950.743,1708.795,954.782,1701.285,954.782,1693.093z"/>
				<polygon style="fill:#FFFFFF;" points="1222.451,1736.516 1185.949,1716.273 1152.535,1736.516 1152.535,1659.225 
					1222.451,1659.225 				"/>
				<g>
					<path style="fill:#FFFFFF;" d="M996.9,1720.152c-0.553,0-1-0.448-1-1v-49.72c0-0.552,0.447-1,1-1c0.553,0,1,0.448,1,1v49.72
						C997.9,1719.705,997.453,1720.152,996.9,1720.152z"/>
					<path style="fill:#FFFFFF;" d="M1021.76,1695.292h-49.72c-0.553,0-1-0.448-1-1s0.447-1,1-1h49.72c0.553,0,1,0.448,1,1
						S1022.313,1695.292,1021.76,1695.292z"/>
				</g>
				<g>
					<path style="fill:#FFFFFF;" d="M1065.811,1720.152c-0.553,0-1-0.448-1-1v-49.72c0-0.552,0.447-1,1-1s1,0.448,1,1v49.72
						C1066.811,1719.705,1066.363,1720.152,1065.811,1720.152z"/>
					<path style="fill:#FFFFFF;" d="M1090.671,1695.292h-49.721c-0.553,0-1-0.448-1-1s0.447-1,1-1h49.721c0.553,0,1,0.448,1,1
						S1091.224,1695.292,1090.671,1695.292z"/>
				</g>
				<g>
					<path style="fill:#FFFFFF;" d="M1264.244,1720.152c-0.553,0-1-0.448-1-1v-49.72c0-0.552,0.447-1,1-1s1,0.448,1,1v49.72
						C1265.244,1719.705,1264.797,1720.152,1264.244,1720.152z"/>
					<path style="fill:#FFFFFF;" d="M1289.104,1695.292h-49.721c-0.553,0-1-0.448-1-1s0.447-1,1-1h49.721c0.553,0,1,0.448,1,1
						S1289.657,1695.292,1289.104,1695.292z"/>
				</g>
			</g>
			<g>
				<g>
					<rect x="723.534" y="1317.569" style="fill:#E6D0BE;" width="322.95" height="14.352"/>
					<rect x="1086.532" y="1317.569" style="fill:#E6D0BE;" width="216.186" height="14.352"/>
					<rect x="723.534" y="1363.939" style="fill:#E6D0BE;" width="173.48" height="14.352"/>
					<rect x="937.062" y="1363.939" style="fill:#E6D0BE;" width="344.303" height="14.352"/>
					<rect x="723.534" y="1503.049" style="fill:#E6D0BE;" width="173.48" height="14.352"/>
					<rect x="937.062" y="1503.049" style="fill:#E6D0BE;" width="344.303" height="14.352"/>
					<rect x="830.298" y="1410.309" style="fill:#E6D0BE;" width="365.655" height="14.352"/>
					<rect x="830.298" y="1456.679" style="fill:#E6D0BE;" width="194.833" height="14.352"/>
				</g>
			</g>
		</g>
		<g>
			<g>
				<path style="fill:#40484C;" d="M1952.012,1598.61c0,29.042-23.543,52.585-52.584,52.585h-475.903
					c-29.042,0-52.584-23.543-52.584-52.585V702.482c0-29.042,23.543-52.584,52.584-52.584h475.903
					c29.042,0,52.584,23.543,52.584,52.584V1598.61z"/>
				<path style="fill:#2D2627;" d="M1426.788,705.633c-15.801,0-28.61,12.809-28.61,28.61v843.624
					c0,15.801,12.809,28.61,28.61,28.61h469.377c15.801,0,28.61-12.809,28.61-28.61V734.243c0-15.801-12.809-28.61-28.61-28.61
					H1426.788z"/>
				<path style="fill:#2D2627;" d="M1729.063,680.829H1593.89c-0.553,0-1-0.448-1-1c0-0.552,0.447-1,1-1h135.174
					c0.553,0,1,0.448,1,1C1730.063,680.382,1729.616,680.829,1729.063,680.829z"/>
			</g>
			<g>
				<polygon style="opacity:0.5;fill:#FFFFFF;" points="2031.139,1449.48 1488.271,1449.48 1488.271,1300.629 1539.438,1300.629 
					1539.438,1213.121 1623.189,1300.629 2031.139,1300.629 				"/>
				<path style="fill:#FFFFFF;" d="M2047.937,1433.683h-542.868c-0.553,0-1-0.448-1-1v-148.851c0-0.552,0.447-1,1-1h50.167v-86.508
					c0-0.408,0.248-0.776,0.628-0.928c0.378-0.152,0.813-0.058,1.095,0.237l83.455,87.199h407.523c0.553,0,1,0.448,1,1v148.851
					C2048.937,1433.235,2048.489,1433.683,2047.937,1433.683z M1506.068,1431.683h540.868v-146.851h-406.95
					c-0.272,0-0.534-0.111-0.723-0.309l-82.028-85.708v85.017c0,0.552-0.447,1-1,1h-50.167V1431.683z"/>
				<polygon style="fill:#d67959;" points="1568.389,1376.739 1592.566,1373.679 1575.431,1356.35 1579.992,1332.41 
					1558.216,1343.352 1536.858,1331.616 1540.535,1355.708 1522.773,1372.394 1546.821,1376.342 1557.203,1398.39 				"/>
				<polygon style="fill:#d67959;" points="1669.173,1376.739 1693.35,1373.679 1676.215,1356.35 1680.777,1332.41 
					1659.001,1343.352 1637.642,1331.616 1641.319,1355.708 1623.558,1372.394 1647.606,1376.342 1657.988,1398.39 				"/>
				<polygon style="fill:#d67959;" points="1769.958,1376.739 1794.135,1373.679 1777,1356.35 1781.561,1332.41 1759.786,1343.352 
					1738.427,1331.616 1742.104,1355.708 1724.343,1372.394 1748.391,1376.342 1758.772,1398.39 				"/>
				<polygon style="fill:#d67959;" points="1870.743,1376.739 1894.92,1373.679 1877.785,1356.35 1882.346,1332.41 
					1860.57,1343.352 1839.212,1331.616 1842.889,1355.708 1825.127,1372.394 1849.176,1376.342 1859.557,1398.39 				"/>
				<polygon style="fill:#d67959;" points="1971.528,1376.739 1995.705,1373.679 1978.57,1356.35 1983.131,1332.41 
					1961.355,1343.352 1939.997,1331.616 1943.674,1355.708 1925.912,1372.394 1949.96,1376.342 1960.342,1398.39 				"/>
			</g>
			<g>
				<g>
					<path style="fill:#d67959;" d="M1815.828,894.1h-307.896c-32.863,0-59.504-26.641-59.504-59.504
						c0-32.863,26.641-59.504,59.504-59.504h307.896c32.863,0,59.504,26.641,59.504,59.504
						C1875.332,867.459,1848.691,894.1,1815.828,894.1z"/>
				</g>
				<g>
					<path style="fill:#FFFFFF;" d="M1552.952,841.666h-20.115v20.779h-10.477v-50.847h33.106v8.486h-22.63v13.131h20.115V841.666z"
						/>
					<path style="fill:#FFFFFF;" d="M1603.312,838.173c0,5.006-0.886,9.394-2.654,13.166c-1.77,3.772-4.302,6.682-7.596,8.731
						c-3.295,2.049-7.072,3.073-11.332,3.073c-4.215,0-7.975-1.013-11.28-3.038c-3.307-2.026-5.867-4.918-7.683-8.678
						c-1.816-3.76-2.736-8.085-2.76-12.974v-2.514c0-5.005,0.902-9.412,2.707-13.218c1.804-3.806,4.354-6.728,7.647-8.765
						c3.295-2.037,7.061-3.056,11.298-3.056s8.003,1.019,11.298,3.056c3.294,2.037,5.843,4.959,7.647,8.765
						c1.805,3.807,2.707,8.201,2.707,13.183V838.173z M1592.694,835.868c0-5.331-0.954-9.382-2.863-12.153
						c-1.909-2.77-4.633-4.156-8.172-4.156c-3.516,0-6.229,1.368-8.137,4.103c-1.909,2.736-2.876,6.746-2.898,12.031v2.48
						c0,5.192,0.954,9.22,2.863,12.083s4.656,4.296,8.242,4.296c3.515,0,6.216-1.38,8.102-4.138c1.886-2.759,2.84-6.78,2.863-12.066
						V835.868z"/>
					<path style="fill:#FFFFFF;" d="M1621.4,854.028h22.246v8.416h-32.723v-50.847h10.477V854.028z"/>
					<path style="fill:#FFFFFF;" d="M1660.13,854.028h22.246v8.416h-32.723v-50.847h10.477V854.028z"/>
					<path style="fill:#FFFFFF;" d="M1727.915,838.173c0,5.006-0.886,9.394-2.654,13.166c-1.77,3.772-4.302,6.682-7.596,8.731
						c-3.295,2.049-7.072,3.073-11.332,3.073c-4.215,0-7.975-1.013-11.28-3.038c-3.307-2.026-5.867-4.918-7.683-8.678
						c-1.816-3.76-2.736-8.085-2.76-12.974v-2.514c0-5.005,0.902-9.412,2.707-13.218c1.804-3.806,4.354-6.728,7.647-8.765
						c3.295-2.037,7.061-3.056,11.298-3.056s8.003,1.019,11.298,3.056c3.294,2.037,5.843,4.959,7.647,8.765
						c1.805,3.807,2.707,8.201,2.707,13.183V838.173z M1717.298,835.868c0-5.331-0.954-9.382-2.863-12.153
						c-1.909-2.77-4.633-4.156-8.172-4.156c-3.516,0-6.229,1.368-8.137,4.103c-1.909,2.736-2.876,6.746-2.898,12.031v2.48
						c0,5.192,0.954,9.22,2.863,12.083s4.656,4.296,8.242,4.296c3.515,0,6.216-1.38,8.102-4.138c1.886-2.759,2.84-6.78,2.863-12.066
						V835.868z"/>
					<path style="fill:#FFFFFF;" d="M1775.131,847.777l6.845-36.18h10.441l-11.28,50.847h-10.546l-8.277-34.015l-8.276,34.015
						h-10.547l-11.279-50.847h10.441l6.88,36.11l8.382-36.11h8.87L1775.131,847.777z"/>
				</g>
			</g>
			<g>
				<path style="fill:#F7F1EB;" d="M1659.871,1182.84c-70.056,0-127.05-56.995-127.05-127.051s56.994-127.051,127.05-127.051
					s127.051,56.995,127.051,127.051S1729.927,1182.84,1659.871,1182.84z M1659.871,930.739c-68.953,0-125.05,56.098-125.05,125.051
					s56.097,125.051,125.05,125.051s125.051-56.098,125.051-125.051S1728.824,930.739,1659.871,930.739z"/>
				<path style="fill:#FFFFFF;" d="M1659.871,1056.579c-40.091,0-66.115,15.348-66.115,39.952
					c12.503,23.75,37.411,39.952,66.115,39.952c28.704,0,53.612-16.202,66.115-39.952
					C1725.986,1073.22,1697.376,1056.579,1659.871,1056.579z"/>
				<circle style="fill:#FFFFFF;" cx="1659.872" cy="1003.343" r="34.096"/>
			</g>
		</g>
		<g>
			<g>
				<path style="fill:#363E44;" d="M1049.545,713.645c-6.311-37.443-37.139-64.594-58.201-83.144
					c-12.19-10.735-17.555-14.51-28.097-25.905c-17.589-19.013-19.87-28.386-36.57-32.296c-33.227-7.779-66.456,19.432-72.058,24.02
					c-32.858,26.908-27.749,54.643-49.887,61.896c-25.003,8.193-42.751-23.506-84.992-41.572
					c-45.318-19.382-115.818-21.787-158.898,15.705c-29.849,25.978-43.031,68.07-41.839,109.466
					c11.649-15.183,32.802-35.941,63.251-39.553c0,0-47.815,24.122-58.418,75.92c6.409,26.464,18.968,50.368,37.006,66.647
					c7.431,6.707,26.612,21.884,119.173,26.792c50.357,2.67,61.93-1.782,268.833-37.878c18.767-3.273,44.651-7.766,66.911-28.276
					C1038.509,784.506,1055.45,748.678,1049.545,713.645z"/>
				<path style="fill:#FFFFFF;" d="M841.803,761.552c-5.898,0-11.708-0.99-16.829-2.693c-15.465-5.142-27.996-15.69-40.531-26.967
					c-4.355-3.919-8.752-7.943-13.004-11.835c-15.838-14.497-32.216-29.488-49.929-42.161
					c-25.653-18.355-50.932-29.176-75.133-32.161c-29.244-3.607-57.757,4.805-76.287,22.5c-0.399,0.381-1.031,0.367-1.414-0.033
					c-0.381-0.399-0.366-1.032,0.033-1.414c18.958-18.105,48.084-26.718,77.912-23.038c24.537,3.027,50.124,13.968,76.053,32.52
					c17.811,12.744,34.233,27.776,50.115,42.313c4.248,3.889,8.642,7.91,12.991,11.823c12.371,11.13,24.726,21.536,39.824,26.556
					c13.829,4.598,32.856,3.824,44.188-8.274c0.376-0.403,1.009-0.424,1.413-0.046c0.403,0.378,0.424,1.01,0.046,1.414
					C863.551,758.277,852.529,761.552,841.803,761.552z"/>
				<path style="fill:#FFFFFF;" d="M818.322,789.418c-7.282,0-14.563-1.01-21.565-3.069c-17.773-5.227-32.947-16.601-47.621-27.599
					c-2.687-2.014-5.369-4.024-8.062-5.994c-16.592-12.139-36.501-24.446-58.554-23.695c-0.548,0.02-1.014-0.413-1.033-0.965
					c-0.019-0.552,0.413-1.015,0.965-1.034c22.77-0.779,43.92,12.46,59.804,24.08c2.698,1.974,5.387,3.989,8.08,6.008
					c14.531,10.892,29.558,22.156,46.985,27.281c20.691,6.086,43.881,2.763,62.032-8.89c0.464-0.299,1.083-0.163,1.382,0.301
					c0.298,0.465,0.163,1.083-0.302,1.382C847.945,785.241,833.13,789.417,818.322,789.418z"/>
			</g>
			<g>
				<path style="fill:#E2A18D;" d="M1001.997,905.776c48.196,59.421,235.16,310.591,318.41,248.466
					c61.571-45.947,0.283-111.383-159.471-305.19C1115.343,879.928,1047.59,874.901,1001.997,905.776z"/>
				<g>
					<path style="fill:#E2A18D;" d="M656.403,863.292c-62.954,25.193-267.464,144.858-240.747,222.718
						c14.625,42.62,50.848,52.825,137.367,20.736c44.218-16.399,150.834-74.47,172.526-81.56
						C711.387,978.485,670.567,909.993,656.403,863.292z"/>
					<g>
						<path style="fill:#E2A18D;" d="M557.612,1075.773c36.816,53.887,129.801,176.499,138.401,188.829
							c16.076,23.05,103.136,135.517,77.513,149.454c-12.082,6.572-49.807-47.74-58.29-59.806
							c7.175,15.254,45.464,77.367,29.173,84.668c-16.766,7.514-59.57-67.997-60.193-68.431c3.72,8.141,36.483,65.644,19.344,74.938
							c-16.505,8.95-42.374-55.672-48.72-62.989c3.406,10.934,23.499,50.27,12.729,56.091c-14.43,7.799-38.34-44.172-44.748-50.075
							c-14.3-20.468-41.805-48.727-72.644-84.534c-72.427-84.097-101.194-124.636-128.825-171.595
							c-10.717-18.214-22.466-56.962,4.407-95.531C470.091,1049.799,513.279,1062.768,557.612,1075.773z"/>
						<path style="fill:#363E44;" d="M582.658,1112c-0.315,0-0.625-0.148-0.819-0.426c-4.305-6.136-11.285-15.875-17.444-24.467
							c-5.606-7.822-10.448-14.577-12.193-17.107c-0.313-0.455-0.199-1.077,0.256-1.391c0.452-0.314,1.076-0.199,1.391,0.255
							c1.735,2.516,6.572,9.264,12.173,17.078c6.161,8.596,13.146,18.34,17.455,24.484c0.317,0.452,0.208,1.076-0.244,1.393
							C583.057,1111.941,582.856,1112,582.658,1112z"/>
						<g>
							<path style="fill:#363E44;" d="M704.556,1323.422c-0.339,0-0.669-0.172-0.857-0.483c-0.286-0.473-0.135-1.087,0.339-1.373
								l10.585-6.395c0.47-0.286,1.086-0.134,1.373,0.339c0.285,0.473,0.134,1.088-0.34,1.373l-10.585,6.395
								C704.91,1323.376,704.731,1323.422,704.556,1323.422z"/>
							<path style="fill:#363E44;" d="M677.721,1339.687c-0.339,0-0.669-0.172-0.857-0.483c-0.285-0.473-0.134-1.088,0.34-1.373
								l10.585-6.395c0.472-0.286,1.087-0.134,1.372,0.339c0.286,0.473,0.135,1.087-0.339,1.373l-10.585,6.395
								C678.075,1339.64,677.896,1339.687,677.721,1339.687z"/>
							<path style="fill:#363E44;" d="M650.578,1356.548c-0.339,0-0.669-0.172-0.857-0.483c-0.285-0.473-0.134-1.088,0.34-1.373
								l10.584-6.394c0.471-0.286,1.086-0.134,1.372,0.339c0.286,0.473,0.135,1.088-0.339,1.373l-10.584,6.394
								C650.933,1356.502,650.754,1356.548,650.578,1356.548z"/>
							<path style="fill:#363E44;" d="M625.648,1371.333c-0.339,0-0.669-0.172-0.858-0.483c-0.285-0.473-0.134-1.087,0.34-1.373
								l10.584-6.394c0.469-0.286,1.086-0.134,1.372,0.339c0.286,0.473,0.135,1.087-0.339,1.373l-10.584,6.394
								C626.002,1371.287,625.823,1371.333,625.648,1371.333z"/>
						</g>
					</g>
				</g>
				<g>
					<path style="fill:#84433f;" d="M625.646,863.524c30.335-27.107,69.311-42.558,109.979-43.598l337.557-7.9
						c28.866-0.675,57.455,5.761,83.246,18.742l34.148,17.187l-74.731,248.658H734.261L625.646,863.524z"/>
					<g>
						<path style="fill:#363E44;" d="M997.63,1005.604c-20.911,0-40.42-11.265-50.914-29.399c-0.277-0.478-0.113-1.09,0.364-1.366
							c0.48-0.277,1.089-0.113,1.366,0.365c10.139,17.518,28.984,28.401,49.184,28.401c20.199,0,39.044-10.883,49.183-28.401
							c0.276-0.478,0.886-0.642,1.366-0.365c0.478,0.277,0.642,0.888,0.364,1.366
							C1038.049,994.339,1018.54,1005.604,997.63,1005.604z"/>
						<path style="fill:#363E44;" d="M844.556,1005.604c-20.91,0-40.419-11.265-50.913-29.399c-0.277-0.478-0.113-1.09,0.364-1.366
							c0.478-0.277,1.089-0.113,1.366,0.365c10.139,17.518,28.983,28.401,49.183,28.401c20.199,0,39.045-10.883,49.184-28.401
							c0.276-0.478,0.884-0.642,1.366-0.365c0.477,0.277,0.642,0.888,0.364,1.366
							C884.976,994.339,865.467,1005.604,844.556,1005.604z"/>
					</g>
				</g>
				<g>
					<g>
						<path style="fill:#E2A18D;" d="M1525.135,916.477c-4.114-6.49-14.297-7.915-16.689-7.855c3.688-6.027,5.2-13.518,0.004-20.869
							c-4.615-6.527-15.609-6.499-16.571-6.445c0.384-0.879,7.828-7.35,2.733-17.963c-3.444-7.171-11.969-9.506-14.801-9.577
							c28.706-27.313,38.721-38.198,33.872-45.134c-8.515-12.177-101.349,46.228-148.529,100.073
							c-78.88,90.024-122.13,113.602-123.285,114.545c1.362,2.967,2.722,5.934,4.099,8.894
							c19.933,42.865,41.258,85.072,61.526,127.777c2.467-2.343,25.651,0.754,152.823-167.977
							c13.272-17.609,47.342-42.011,58.852-51.835C1525.441,934.757,1530.485,924.915,1525.135,916.477z"/>
						<path style="fill:#363E44;" d="M1418.051,963.842c-0.166,0-0.334-0.041-0.489-0.129c-0.481-0.271-0.652-0.881-0.381-1.362
							c7.609-13.52,8.149-26.101,8.582-36.21c0.438-10.203,0.783-18.261,8.981-21.001c5.696-1.904,11.384-6.846,16.905-14.691
							c1.61-2.289,1.068-4.73,0.023-6.251c-1.059-1.542-3.168-2.945-5.929-2.252l-45.141,11.321
							c-0.535,0.134-1.079-0.19-1.213-0.727c-0.135-0.536,0.19-1.079,0.727-1.213l45.141-11.321c3.088-0.774,6.255,0.426,8.063,3.06
							c1.818,2.648,1.805,5.918-0.037,8.534c-5.771,8.201-11.797,13.395-17.905,15.437c-6.895,2.303-7.182,9.021-7.618,19.189
							c-0.442,10.322-0.992,23.168-8.838,37.106C1418.739,963.659,1418.4,963.842,1418.051,963.842z"/>
						<path style="fill:#363E44;" d="M1493.599,951.144c-0.281,0-0.561-0.118-0.759-0.349c-8.237-9.596-7.668-24.062,1.281-32.982
							l-7.476,4.765c-6.465,4.122-14.948,3.037-20.17-2.583c-2.939-3.164-4.44-7.282-4.227-11.596
							c0.214-4.313,2.115-8.262,5.353-11.119l7.035-6.208c-5.273,1.999-11.491,0.345-14.977-4.374
							c-3.902-5.282-3.217-12.635,1.595-17.106l12.486-11.598c0.403-0.376,1.038-0.353,1.413,0.052
							c0.376,0.405,0.353,1.037-0.052,1.413l-12.486,11.598c-4.065,3.777-4.645,9.99-1.347,14.452
							c3.498,4.736,10.253,5.819,15.058,2.413l9.587-6.796c0.431-0.308,1.03-0.221,1.362,0.195c0.33,0.417,0.276,1.019-0.122,1.371
							l-18.229,16.087c-2.83,2.497-4.492,5.949-4.679,9.719c-0.188,3.77,1.124,7.37,3.693,10.135
							c4.563,4.911,11.978,5.862,17.631,2.258l15.4-9.816c0.43-0.275,1.001-0.18,1.318,0.22c0.319,0.4,0.285,0.976-0.078,1.335
							l-6.609,6.531c-8.278,8.178-8.824,21.502-1.245,30.331c0.359,0.419,0.312,1.05-0.107,1.41
							C1494.062,951.065,1493.83,951.144,1493.599,951.144z"/>
					</g>
				</g>
			</g>
			<g>
				
					<ellipse transform="matrix(0.7071 -0.7071 0.7071 0.7071 -186.593 838.3367)" style="fill:#363E44;" cx="918.665" cy="644.406" rx="73.553" ry="73.554"/>
				<rect x="882.859" y="704.896" style="fill:#E2A18D;" width="73.192" height="126.012"/>
				<path style="fill:#E2A18D;" d="M979.395,671.147c0,39.181-27.137,80.511-60.611,80.511c-33.475,0-60.612-41.33-60.612-80.511
					c0-39.181,27.137-70.943,60.612-70.943C952.258,600.204,979.395,631.966,979.395,671.147z"/>
				<path style="fill:#363E44;" d="M918.783,752.657c-12.164,0-24.122-5.333-34.583-15.423c-0.398-0.383-0.409-1.016-0.025-1.414
					c0.385-0.398,1.017-0.409,1.414-0.025c10.08,9.723,21.559,14.863,33.194,14.863c12.657,0,24.976-5.991,35.623-17.324
					c0.377-0.403,1.011-0.422,1.413-0.044c0.402,0.378,0.423,1.011,0.044,1.413C944.829,746.449,932.007,752.657,918.783,752.657z"
					/>
				<path style="fill:#E2A18D;" d="M869.104,669.756c5.474,11.997,3.365,24.71-4.71,28.394c-8.075,3.685-19.059-3.054-24.533-15.052
					c-5.474-11.997-3.366-24.71,4.709-28.394C852.646,651.02,863.629,657.759,869.104,669.756z"/>
				<path style="fill:#363E44;" d="M850.477,686.776c-0.23,0-0.461-0.078-0.649-0.239c-1.931-1.648-3.565-3.862-4.727-6.405
					c-3.191-6.995-1.823-14.493,3.048-16.716c1.837-0.838,3.951-0.85,6.115-0.037c0.518,0.194,0.778,0.771,0.585,1.288
					c-0.195,0.517-0.771,0.778-1.288,0.584c-1.656-0.622-3.24-0.627-4.582-0.016c-3.868,1.765-4.791,8.075-2.058,14.066
					c1.04,2.278,2.494,4.254,4.205,5.714c0.42,0.358,0.47,0.99,0.111,1.41C851.041,686.657,850.76,686.776,850.477,686.776z"/>
				<path style="fill:#363E44;" d="M862.254,697.796c-0.42,0-0.81-0.266-0.949-0.686c-2.742-8.276-4.133-17.012-4.133-25.963
					c0-4.442,0.35-8.892,1.039-13.224c0.087-0.545,0.592-0.917,1.145-0.831c0.545,0.087,0.917,0.599,0.83,1.145
					c-0.673,4.229-1.014,8.573-1.014,12.91c0,8.738,1.356,17.261,4.031,25.334c0.174,0.524-0.11,1.09-0.635,1.264
					C862.464,697.779,862.358,697.796,862.254,697.796z"/>
				<path style="fill:#E2A18D;" d="M967.813,669.756c-5.474,11.997-3.365,24.71,4.71,28.394c8.075,3.685,19.059-3.054,24.533-15.052
					c5.474-11.997,3.365-24.71-4.71-28.394S973.287,657.759,967.813,669.756z"/>
				<path style="fill:#363E44;" d="M986.438,686.776c-0.282,0-0.563-0.119-0.761-0.351c-0.358-0.42-0.309-1.051,0.112-1.41
					c1.711-1.459,3.165-3.435,4.204-5.713c1.354-2.966,1.852-6.094,1.401-8.807c-0.426-2.568-1.654-4.436-3.459-5.26
					c-1.343-0.612-2.925-0.607-4.582,0.016c-0.516,0.194-1.093-0.067-1.288-0.585c-0.193-0.517,0.068-1.094,0.585-1.288
					c2.165-0.813,4.279-0.8,6.115,0.037c2.43,1.109,4.063,3.506,4.602,6.752c0.514,3.101-0.038,6.64-1.555,9.964
					c-1.16,2.542-2.795,4.757-4.728,6.405C986.899,686.698,986.668,686.776,986.438,686.776z"/>
				<path style="fill:#363E44;" d="M974.662,697.796c-0.104,0-0.21-0.016-0.314-0.051c-0.525-0.174-0.809-0.74-0.635-1.264
					c2.675-8.07,4.031-16.593,4.031-25.334c0-4.341-0.341-8.685-1.013-12.91c-0.087-0.545,0.285-1.058,0.83-1.145
					c0.559-0.087,1.059,0.285,1.145,0.831c0.688,4.328,1.038,8.778,1.038,13.224c0,8.955-1.391,17.69-4.133,25.963
					C975.473,697.53,975.082,697.796,974.662,697.796z"/>
				<path style="fill:#363E44;" d="M919.993,705.832c-0.331,0-0.654-0.164-0.845-0.464c-0.297-0.466-0.159-1.084,0.308-1.38
					c1.973-1.254,3.164-2.696,3.542-4.285c0.395-1.66-0.212-3.036-1.052-4.94c-0.665-1.511-1.42-3.223-1.865-5.504
					c-0.567-2.906-0.46-5.985,0.316-9.154c0.133-0.537,0.676-0.864,1.21-0.733c0.536,0.132,0.864,0.673,0.733,1.209
					c-0.708,2.885-0.808,5.676-0.297,8.295c0.402,2.062,1.109,3.666,1.733,5.081c0.922,2.091,1.718,3.896,1.167,6.21
					c-0.502,2.113-1.987,3.967-4.415,5.51C920.362,705.782,920.177,705.832,919.993,705.832z"/>
				<path style="fill:#363E44;" d="M911.815,719.125c-2.442,0-4.778-1.076-6.167-3.069c-1.615-2.318-1.662-5.539-0.119-8.204
					c0.276-0.478,0.886-0.642,1.366-0.365c0.478,0.277,0.642,0.888,0.364,1.366c-1.155,1.997-1.144,4.375,0.029,6.059
					c1.604,2.302,4.99,2.904,7.701,1.374c0.481-0.272,1.091-0.101,1.362,0.38c0.271,0.481,0.102,1.091-0.38,1.362
					C914.657,718.77,913.219,719.125,911.815,719.125z"/>
				<path style="fill:#E2A18D;" d="M1015.682,824.393c0,0-43.656,45.491-97.509,45.491c-53.853,0-97.509-45.491-97.509-45.491
					s43.656-15.65,97.509-15.65C972.026,808.743,1015.682,824.393,1015.682,824.393z"/>
				<g>
					<g>
						<path style="fill:#FFFFFF;" d="M962.377,660.948l-0.157-0.013c-0.083,0.327-0.302,0.744-0.648,0.733
							c-0.413,0.49-0.602,1.283-0.881,1.806c-0.5,0.941-1.927,0.104-1.427-0.834c0.336-0.632-1.907,0.578-2.89,0.956
							c-3.136,1.206-6.315,2.27-9.533,3.236c-1.501,0.451-3.003,0.913-4.519,1.311c-1.215,0.319-5.228,1.583-5.546,1.395
							c-4.09,3.745-6.349,7.285-6.349,7.285s5.868,2.604,13.45,3.007c0.022-0.102,0.045-0.202,0.063-0.305
							c0.176-1.017,17.663-5.143,18.135-4.367c7.401-4.714,11.662-11.368,11.662-11.368S968.92,661.65,962.377,660.948z"/>
						<path style="fill:#363E44;" d="M949.57,661.958c-5.251,1.58-9.58,4.638-12.785,7.571c0.398,3.277,1.957,6.423,4.656,8.745
							c0.695,0.598,1.434,1.11,2.203,1.546c3.418,0.202,7.195-0.036,10.95-1.166c2.715-0.817,5.169-2.038,7.363-3.423
							c2.797-4.385,2.828-9.922,0.263-14.295C958.379,660.537,953.96,660.637,949.57,661.958z"/>
					</g>
					<g>
						<path style="fill:#FFFFFF;" d="M876.66,662.132l0.157-0.013c0.083,0.327,0.302,0.744,0.648,0.733
							c0.413,0.49,0.602,1.283,0.881,1.806c0.5,0.941,1.927,0.104,1.427-0.834c-0.336-0.632,1.907,0.578,2.89,0.956
							c3.136,1.206,6.315,2.27,9.533,3.236c1.501,0.45,3.003,0.913,4.519,1.311c1.215,0.319,5.228,1.584,5.546,1.395
							c4.09,3.745,6.349,7.285,6.349,7.285s-5.868,2.605-13.45,3.007c-0.021-0.102-0.045-0.202-0.063-0.305
							c-0.176-1.017-17.663-5.143-18.135-4.367c-7.401-4.714-11.662-11.367-11.662-11.367S870.116,662.834,876.66,662.132z"/>
						<path style="fill:#363E44;" d="M889.467,663.142c5.251,1.58,9.579,4.638,12.785,7.571c-0.398,3.277-1.957,6.423-4.656,8.745
							c-0.695,0.598-1.434,1.11-2.203,1.546c-3.418,0.203-7.195-0.036-10.949-1.166c-2.715-0.817-5.169-2.038-7.363-3.424
							c-2.797-4.385-2.828-9.922-0.264-14.295C880.658,661.721,885.076,661.821,889.467,663.142z"/>
					</g>
				</g>
				<path style="fill:#363E44;" d="M858.172,630.943c0,0,7.541-24.943,36.881-7.391c29.339,17.553,110.362,27.715,120.661-34.182
					c10.299-61.896-40.68-59.713-59.663-37.955c-18.983,21.758-27.148,50.475-60.998,48.788
					C861.203,598.516,858.172,630.943,858.172,630.943z"/>
				<path style="fill:#FFFFFF;" d="M957.185,637.588c-13.582,0-28.401-3.235-44.276-9.684c-0.512-0.208-0.759-0.791-0.551-1.303
					c0.209-0.513,0.793-0.757,1.303-0.55c22.974,9.332,43.642,11.831,61.436,7.429c18.584-4.598,38.149-20.257,39.587-41.288
					c0.038-0.55,0.496-0.968,1.066-0.93c0.551,0.038,0.967,0.515,0.93,1.066c-1.503,21.987-21.815,38.321-41.103,43.093
					C969.735,636.866,963.598,637.588,957.185,637.588z"/>
			</g>
		</g>
		<g>
			<g>
				<path style="fill:#363E44;" d="M1503.003,506.392c-0.342,0-0.675-0.176-0.862-0.491c-0.28-0.475-0.123-1.089,0.353-1.37
					c20.234-11.958,28.905-35.983,20.617-57.126c-7.992-20.385-29.964-32.259-52.263-28.23c-0.542,0.099-1.063-0.263-1.162-0.806
					c-0.098-0.544,0.263-1.064,0.807-1.162c23.219-4.197,46.141,8.196,54.479,29.468c8.649,22.062-0.377,47.118-21.461,59.578
					C1503.351,506.347,1503.176,506.392,1503.003,506.392z"/>
				<polygon style="fill:#d67959;" points="1207.045,517.299 1243.751,610.93 1523.959,581.209 1432.8,348.672 				"/>
				
					<rect x="1160.657" y="526.199" transform="matrix(0.931 -0.365 0.365 0.931 -127.976 475.6084)" style="fill:#FFD092;" width="67.053" height="100.304"/>
				<g>
					
						<rect x="1179.166" y="593.374" transform="matrix(0.931 -0.365 0.365 0.931 -136.8044 480.6161)" style="fill:#d67959;" width="47.694" height="17.669"/>
					
						<rect x="1169.203" y="567.961" transform="matrix(0.931 -0.365 0.365 0.931 -128.2166 475.2275)" style="fill:#d67959;" width="47.694" height="17.669"/>
					
						<rect x="1159.241" y="542.548" transform="matrix(0.931 -0.365 0.365 0.931 -119.6287 469.8384)" style="fill:#d67959;" width="47.694" height="17.669"/>
				</g>
			</g>
			<g>
				<path style="fill:#d67959;" d="M1507.989,397.944c-0.187,0-0.376-0.052-0.544-0.162c-0.463-0.301-0.595-0.92-0.294-1.383
					l30.043-46.216c0.169-0.259,0.447-0.426,0.756-0.452c0.302-0.026,0.61,0.092,0.819,0.32l29.969,32.599l49.823-45.803
					c0.407-0.373,1.039-0.348,1.413,0.059c0.374,0.406,0.347,1.039-0.06,1.413l-50.56,46.48c-0.194,0.179-0.458,0.273-0.719,0.263
					c-0.265-0.011-0.515-0.127-0.694-0.322l-29.773-32.387l-29.34,45.135C1508.637,397.784,1508.316,397.944,1507.989,397.944z"/>
				<path style="fill:#d67959;" d="M1574.909,527.865c-0.283,0-0.553-0.12-0.743-0.331c-0.196-0.218-0.287-0.511-0.248-0.802
					l4.278-32.067l-42.544-4.608c-0.55-0.059-0.946-0.553-0.887-1.102c0.06-0.549,0.557-0.946,1.102-0.887l43.563,4.718
					c0.269,0.029,0.513,0.165,0.68,0.377c0.166,0.212,0.24,0.482,0.204,0.749l-4.259,31.917l60.121-1.731
					c0.557-0.018,1.012,0.419,1.028,0.971c0.016,0.552-0.419,1.013-0.972,1.028l-61.296,1.765
					C1574.929,527.865,1574.919,527.865,1574.909,527.865z"/>
				<path style="fill:#d67959;" d="M1609.01,456.59c-0.127,0-0.254-0.024-0.373-0.072c-0.263-0.106-0.468-0.317-0.565-0.583
					l-11.755-32.005l-30.449,10.865c-0.522,0.186-1.093-0.086-1.277-0.606c-0.186-0.52,0.085-1.092,0.605-1.278l31.382-11.197
					c0.517-0.185,1.085,0.082,1.274,0.597l11.715,31.896l48.748-23.743c0.5-0.242,1.095-0.035,1.337,0.461
					c0.241,0.497,0.035,1.095-0.462,1.337l-49.742,24.228C1609.31,456.556,1609.16,456.59,1609.01,456.59z"/>
			</g>
		</g>
		<g>
			<polygon style="fill:#FFFFFF;" points="1926.866,1895.762 1805.686,1931.076 1911.124,1755.847 			"/>
			
				<ellipse transform="matrix(0.7071 -0.7071 0.7071 0.7071 -717.8035 1892.4371)" style="fill:#FFFFFF;" cx="1925.472" cy="1812.684" rx="118.392" ry="118.392"/>
			<path style="fill:#D3BBA3;" d="M1925.472,1932.076c-16.567,0-32.604-3.329-47.667-9.896c-0.507-0.221-0.738-0.81-0.518-1.316
				c0.221-0.506,0.813-0.738,1.316-0.517c14.81,6.456,30.578,9.729,46.868,9.729c64.729,0,117.392-52.662,117.392-117.392
				c0-23.193-6.753-45.621-19.527-64.857c-0.306-0.46-0.181-1.081,0.28-1.386c0.459-0.307,1.08-0.18,1.386,0.28
				c12.993,19.565,19.861,42.375,19.861,65.964C2044.863,1878.517,1991.305,1932.076,1925.472,1932.076z"/>
			<path style="fill:#d67959;" d="M1860.253,1790.675c4.891-15.722,19.554-27.137,36.886-27.137
				c11.211,0,21.278,4.807,28.333,12.437c7.054-7.63,17.12-12.437,28.331-12.437c0,0,0,0,0.001,0
				c17.331,0,31.995,11.416,36.885,27.137c1.128,3.628,1.737,7.485,1.737,11.485c0,21.33-25.223,57.539-66.954,73.303
				c-41.732-15.764-66.954-51.973-66.954-73.303C1858.518,1798.161,1859.125,1794.303,1860.253,1790.675z"/>
		</g>
	</g>
</g>
</svg>
