<?xml version="1.0" encoding="UTF-8" standalone="no"?><!DOCTYPE svg PUBLIC "-//W3C//DTD SVG 1.1//EN" "http://www.w3.org/Graphics/SVG/1.1/DTD/svg11.dtd"><svg width="100%" height="100%" viewBox="0 0 27 27" version="1.1" xmlns="http://www.w3.org/2000/svg" xmlns:xlink="http://www.w3.org/1999/xlink" xml:space="preserve" xmlns:serif="http://www.serif.com/" style="fill-rule:evenodd;clip-rule:evenodd;stroke-linejoin:round;stroke-miterlimit:2;"><g><g><circle cx="9.585" cy="15.206" r="9.585" style="fill:#974d33;fill-opacity:0.7;"/><circle cx="19.276" cy="15.768" r="7.724" style="fill:#302828;fill-opacity:0.7;"/><g><g><path d="M15.743,5.241c-2.939,-2.939 -7.703,-2.939 -10.641,0c-2.563,2.563 -2.89,6.516 -0.981,9.434l-0.712,2.854l2.749,-0.77c2.932,2.022 6.977,1.731 9.586,-0.877c2.939,-2.939 2.939,-7.703 0,-10.641Z" style="fill:#a33e1b;fill-rule:nonzero;"/><path d="M16.399,9.231c2.026,-2.026 5.31,-2.026 7.335,0c1.767,1.767 1.992,4.491 0.676,6.503l0.491,1.968l-1.895,-0.531c-2.021,1.394 -4.81,1.193 -6.607,-0.605c-2.026,-2.026 -2.026,-5.31 -0,-7.335Z" style="fill:#2d2627;fill-opacity:0.8;fill-rule:nonzero;"/><g><path d="M7.193,7.57c1.339,1.563 0.785,1.076 2.131,0.455c1.268,-0.584 2.096,0.307 1.707,1.251c-0.345,0.838 -1.138,1.102 -1.497,1.875c-0.198,0.426 -0.036,0.74 0.265,1.839c2.956,-0.391 0.512,-0.481 2.101,-2.044c3.637,-3.578 -1.51,-6.861 -4.705,-3.376Z" style="fill:#fff;fill-rule:nonzero;"/><path d="M9.838,14.758c0.185,1.398 2.339,1.101 2.155,-0.285c-0.183,-1.382 -2.34,-1.108 -2.155,0.285Z" style="fill:#fff;fill-rule:nonzero;"/></g><g><path d="M18.506,10.236c0.553,1.339 0.29,0.892 1.326,0.771c0.976,-0.113 1.335,0.664 0.868,1.211c-0.415,0.485 -1.002,0.488 -1.413,0.926c-0.226,0.241 -0.186,0.487 -0.226,1.288c2.063,0.386 0.448,-0.209 1.853,-0.907c3.217,-1.596 0.493,-4.921 -2.408,-3.29Z" style="fill:#fff;fill-rule:nonzero;"/><path d="M18.7,15.624c-0.183,0.975 1.323,1.249 1.504,0.282c0.181,-0.965 -1.322,-1.254 -1.504,-0.282Z" style="fill:#fff;fill-rule:nonzero;"/></g></g><g><path d="M26.192,19.03l-2.153,-0.603l0.023,-0.081l2.013,0.564l-0.071,-0.285l0.082,-0.02l0.106,0.426Z" style="fill:#d66159;fill-opacity:0.8;fill-rule:nonzero;"/><path d="M10.425,19.016c-0.999,-0 -1.98,-0.174 -2.914,-0.516l0.029,-0.079c0.925,0.339 1.896,0.511 2.885,0.511c0.254,0 0.51,-0.012 0.763,-0.035c1.005,-0.091 1.973,-0.359 2.877,-0.796l0.037,0.076c-0.914,0.441 -1.892,0.712 -2.906,0.804c-0.255,0.023 -0.514,0.035 -0.77,0.035Z" style="fill:#84433f;fill-rule:nonzero;"/><path d="M17.55,18.476c-0.516,-0.233 -0.997,-0.537 -1.431,-0.904l0.055,-0.064c0.428,0.362 0.902,0.662 1.411,0.891l-0.035,0.077Z" style="fill:#d66159;fill-opacity:0.8;fill-rule:nonzero;"/><path d="M3.587,18.446l-0.023,-0.081l2.451,-0.686l0.015,0.009l-0.02,0.039l0.011,0.038l-2.434,0.681Z" style="fill:#84433f;fill-rule:nonzero;"/><path d="M25.596,16.988l-0.278,-1.117l0.008,-0.015c0.506,-0.899 0.774,-1.922 0.774,-2.959c0,-0.208 -0.011,-0.417 -0.032,-0.624c-0.087,-0.843 -0.344,-1.641 -0.764,-2.374l0.073,-0.042c0.425,0.742 0.686,1.552 0.774,2.407c0.022,0.209 0.033,0.422 0.033,0.632c0,1.046 -0.268,2.078 -0.777,2.986l0.27,1.084l-0.082,0.02Z" style="fill:#d66159;fill-opacity:0.8;fill-rule:nonzero;"/><path d="M2.597,13.768c-0.213,-0.521 -0.375,-1.067 -0.481,-1.622l0.083,-0.016c0.104,0.55 0.265,1.09 0.476,1.606l-0.078,0.032Z" style="fill:#84433f;fill-rule:nonzero;"/><path d="M2.104,9.625l-0.084,-0.009c0.212,-1.895 1.073,-3.683 2.424,-5.034c0.255,-0.255 0.529,-0.496 0.813,-0.716l0.052,0.067c-0.281,0.217 -0.552,0.456 -0.805,0.709c-1.337,1.337 -2.19,3.107 -2.399,4.983Z" style="fill:#84433f;fill-rule:nonzero;"/><path d="M24.282,8.581c-0.916,-0.895 -2.069,-1.466 -3.334,-1.651c-0.29,-0.043 -0.586,-0.064 -0.88,-0.064c-0.663,0 -1.317,0.108 -1.943,0.32l-0.036,0.012l-0.038,-0.086l0.077,-0.035l0.007,0.016c0.624,-0.207 1.274,-0.312 1.933,-0.312c0.298,0 0.598,0.022 0.892,0.065c1.282,0.188 2.451,0.767 3.38,1.674l-0.059,0.06Z" style="fill:#d66159;fill-opacity:0.8;fill-rule:nonzero;"/><path d="M16.688,5.009c-0.111,-0.125 -0.227,-0.248 -0.346,-0.367c-0.277,-0.277 -0.574,-0.536 -0.885,-0.77l0.051,-0.067c0.313,0.237 0.614,0.498 0.894,0.778c0.12,0.12 0.237,0.244 0.349,0.371l-0.063,0.056Z" style="fill:#84433f;fill-rule:nonzero;"/><path d="M6.729,3.047l-0.037,-0.076c0.761,-0.374 1.573,-0.631 2.414,-0.763l0.013,0.083c-0.833,0.131 -1.637,0.385 -2.39,0.755Z" style="fill:#84433f;fill-rule:nonzero;"/></g></g></g></g></svg>